<svg height="480pt" viewBox="0 0 480 480" width="480pt" xmlns="http://www.w3.org/2000/svg"><path d="m440 8h-288c-17.671875 0-32 14.328125-32 32v400c0 17.671875 14.328125 32 32 32h288c17.671875 0 32-14.328125 32-32v-400c0-17.671875-14.328125-32-32-32zm0 0" fill="#e6e7e8"/><path d="m120 392h-80v-224h-32v256h224v-32zm0 0" fill="#ff9811"/><path d="m40 136h208v256h-208zm0 0" fill="#ffd422"/><path d="m163.601562 207.121094-3.601562-7.121094-11.921875 7.921875c-7.875 5.28125-17.152344 8.097656-26.636719 8.078125h-9.441406v16c.011719 7.777344 2.855469 15.285156 8 21.121094 2.269531 2.628906 4.976562 4.847656 8 6.558594 9.890625 5.761718 22.109375 5.761718 32 0 2.414062-1.398438 4.644531-3.09375 6.640625-5.039063 5.980469-6.019531 9.34375-14.15625 9.359375-22.640625v-16.160156c-5.359375-.578125-10.042969-3.875-12.398438-8.71875zm0 0" fill="#ffdaaa"/><path d="m144 168c-8.660156-.035156-17.09375 2.777344-24 8-10.0625 7.5625-15.988281 19.414062-16 32v8h17.441406c9.484375.019531 18.761719-2.796875 26.636719-8.078125l11.921875-7.921875 3.601562 7.121094c2.355469 4.84375 7.039063 8.140625 12.398438 8.71875.632812.132812 1.277344.1875 1.921875.160156h6.078125v-8c0-22.089844-17.910156-40-40-40zm0 0" fill="#3e3d42"/><path d="m424 8v80l-24-24-24 24v-80zm0 0" fill="#ff5023"/><path d="m171.601562 283.28125-27.601562 20.71875-27.601562-20.71875 11.601562-3.28125v-20.320312c9.890625 5.761718 22.109375 5.761718 32 0v20.320312zm0 0" fill="#ffdaaa"/><path d="m192.800781 289.359375-21.199219-6.078125-27.601562 20.71875-24-18-3.601562-2.71875-21.199219 6.078125c-13.746094 3.933594-23.214844 16.503906-23.199219 30.800781v39.839844h144v-39.839844c.015625-14.296875-9.453125-26.867187-23.199219-30.800781zm0 0" fill="#3d9ae2"/><path d="m160 259.679688v8c-9.890625 5.761718-22.109375 5.761718-32 0v-8c9.890625 5.761718 22.109375 5.761718 32 0zm0 0" fill="#f2cd9d"/><path d="m440 0h-288c-22.082031.0273438-39.972656 17.917969-40 40v72h16v-72c0-13.253906 10.746094-24 24-24h216v72c0 3.234375 1.949219 6.152344 4.9375 7.390625s6.429688.550781 8.71875-1.734375l18.34375-18.34375 18.34375 18.34375c1.5 1.5 3.535156 2.34375 5.65625 2.34375 1.050781.003906 2.09375-.203125 3.0625-.609375 2.988281-1.238281 4.9375-4.15625 4.9375-7.390625v-72h8c13.253906 0 24 10.746094 24 24v400c0 13.253906-10.746094 24-24 24h-288c-10.945312.003906-20.507812-7.394531-23.246094-17.992188l-15.488281 4c4.5625 17.660157 20.496094 29.996094 38.734375 29.992188h288c22.082031-.027344 39.972656-17.917969 40-40v-400c-.027344-22.082031-17.917969-39.9726562-40-40zm-24 68.6875-10.34375-10.34375c-3.125-3.121094-8.1875-3.121094-11.3125 0l-10.34375 10.34375v-52.6875h32zm0 0"/><path d="m72 368h144c4.417969 0 8-3.582031 8-8v-39.839844c-.039062-17.847656-11.851562-33.53125-29-38.488281l-27-7.726563v-10.152343c10.035156-7.492188 15.964844-19.269531 16-31.792969v-8c4.417969 0 8-3.582031 8-8v-8c0-26.507812-21.492188-48-48-48s-48 21.492188-48 48v8c0 4.417969 3.582031 8 8 8v8c.035156 12.523438 5.964844 24.300781 16 31.792969v10.152343l-26.992188 7.71875c-17.152343 4.957032-28.96875 20.644532-29.007812 38.496094v39.839844c0 4.417969 3.582031 8 8 8zm72-192c17.589844 0 31.882812 14.195312 32 31.785156-2.296875-.558594-4.230469-2.101562-5.28125-4.21875l-3.558594-7.132812c-1.023437-2.058594-2.882812-3.574219-5.101562-4.164063-2.222656-.59375-4.585938-.199219-6.5 1.074219l-11.902344 7.9375c-6.566406 4.390625-14.292969 6.730469-22.191406 6.71875h-9.464844c0-17.671875 14.328125-32 32-32zm-22.535156 48c11.058594.015625 21.871094-3.261719 31.0625-9.40625l4.382812-2.921875c2.519532 4.445313 6.410156 7.953125 11.089844 10v10.328125c0 13.253906-10.746094 24-24 24s-24-10.746094-24-24v-8zm22.535156 48c2.6875.003906 5.367188-.265625 8-.800781v8.800781c.023438 2.277344 1.03125 4.4375 2.761719 5.921875l-10.761719 8.078125-10.761719-8.078125c1.730469-1.484375 2.738281-3.644531 2.761719-5.921875v-8.800781c2.632812.535156 5.3125.804687 8 .800781zm-64 48.160156c.019531-10.714844 7.109375-20.132812 17.398438-23.113281l17.402343-4.96875 24.398438 18.320313c2.84375 2.136718 6.757812 2.136718 9.601562 0l24.398438-18.320313 17.410156 4.976563c10.289063 2.980468 17.375 12.394531 17.390625 23.105468v31.839844h-16v-32h-16v32h-64v-32h-16v32h-16zm0 0"/><path d="m240 424v-24h8c4.417969 0 8-3.582031 8-8v-256c0-4.417969-3.582031-8-8-8h-208c-4.417969 0-8 3.582031-8 8v24h-24c-4.417969 0-8 3.582031-8 8v256c0 4.417969 3.582031 8 8 8h224c4.417969 0 8-3.582031 8-8zm-192-280h192v240h-192zm-32 272v-240h16v216c0 4.417969 3.582031 8 8 8h184v16zm0 0"/><path d="m160 48h64v16h-64zm0 0"/><path d="m160 80h64v16h-64zm0 0"/><path d="m288 128h144v16h-144zm0 0"/><path d="m288 176h144v16h-144zm0 0"/><path d="m288 224h144v16h-144zm0 0"/><path d="m288 272h144v16h-144zm0 0"/><path d="m288 320h144v16h-144zm0 0"/><path d="m288 368h144v16h-144zm0 0"/></svg>